<?xml version="1.0" encoding="UTF-8"?>
<!DOCTYPE svg PUBLIC "-//W3C//DTD SVG 1.1//EN" "http://www.w3.org/Graphics/SVG/1.1/DTD/svg11.dtd">
<svg xmlns="http://www.w3.org/2000/svg" version="1.1" width="318px" height="125px" style="shape-rendering:geometricPrecision; text-rendering:geometricPrecision; image-rendering:optimizeQuality; fill-rule:evenodd; clip-rule:evenodd" xmlns:xlink="http://www.w3.org/1999/xlink">
<g><path style="opacity:0.999" fill="#fefffe" d="M -0.5,-0.5 C 29.5,-0.5 59.5,-0.5 89.5,-0.5C 98.4449,1.15128 107.445,3.31795 116.5,6C 141.943,15.4002 155.943,33.5669 158.5,60.5C 157.553,82.8991 147.887,100.399 129.5,113C 120.498,117.937 111.165,121.77 101.5,124.5C 101.167,124.5 100.833,124.5 100.5,124.5C 100.167,123.167 99.8333,123.167 99.5,124.5C 66.1667,124.5 32.8333,124.5 -0.5,124.5C -0.5,98.8333 -0.5,73.1667 -0.5,47.5C 12.5,47.5 25.5,47.5 38.5,47.5C 37.8596,62.5764 38.5262,77.4098 40.5,92C 56.5,92.6667 72.5,92.6667 88.5,92C 108.898,89.2839 118.731,77.7839 118,57.5C 112.222,43.5101 101.722,35.6768 86.5,34C 57.4281,33.1756 28.4281,33.3423 -0.5,34.5C -0.5,22.8333 -0.5,11.1667 -0.5,-0.5 Z"/></g>
<g><path style="opacity:0.996" fill="#fefffe" d="M 206.5,-0.5 C 213.5,-0.5 220.5,-0.5 227.5,-0.5C 232.681,2.16625 237.181,5.83292 241,10.5C 266.276,47.4075 291.776,84.0742 317.5,120.5C 317.5,121.833 317.5,123.167 317.5,124.5C 269.833,124.5 222.167,124.5 174.5,124.5C 181.783,114.203 189.117,103.87 196.5,93.5C 213.974,92.9877 231.308,92.1544 248.5,91C 239.049,78.6014 230.216,65.7681 222,52.5C 220.434,50.0072 218.434,48.0072 216,46.5C 196.68,72.0114 177.847,98.0114 159.5,124.5C 150.167,124.5 140.833,124.5 131.5,124.5C 135.651,121.197 139.985,118.03 144.5,115C 164.074,95.9477 171.907,72.781 168,45.5C 176.579,34.0094 184.912,22.3427 193,10.5C 196.819,5.83292 201.319,2.16625 206.5,-0.5 Z"/></g>
</svg>
