<svg fill="none" viewBox="0 0 15 23" xmlns="http://www.w3.org/2000/svg"><g fill="#758ca3"><path d="m7 0h-3.5c-1.933 0-3.5 1.567-3.5 3.5s1.567 3.5 3.5 3.5h3.5z"/><path d="m8 0h3.5c1.933 0 3.5 1.567 3.5 3.5s-1.567 3.5-3.5 3.5h-3.5z"/><path d="m7 8h-3.5c-1.933 0-3.5 1.567-3.5 3.5s1.567 3.5 3.5 3.5h3.5z"/><path d="m7 16h-3.5c-1.933 0-3.5 1.567-3.5 3.5s1.567 3.5 3.5 3.5 3.5-1.567 3.5-3.5z"/><path d="m11.5 15c1.933 0 3.5-1.567 3.5-3.5s-1.567-3.5-3.5-3.5-3.5 1.567-3.5 3.5 1.567 3.5 3.5 3.5z"/></g></svg>